<?xml version="1.0" encoding="UTF-8"?>
<svg id="Camada_1" xmlns="http://www.w3.org/2000/svg" version="1.1" viewBox="0 0 512 512">
  <!-- Generator: Adobe Illustrator 29.5.0, SVG Export Plug-In . SVG Version: 2.1.0 Build 137)  -->
  <defs>
    <style>
      .st0 {
        fill: #00a63a;
      }
    </style>
  </defs>
  <path class="st0" d="M316.83,214.7c-1.33-.77-3.83-1.16-7.49-1.16v84.91c4.84,0,7.81-.97,8.93-2.91s1.67-7.22,1.67-15.83v-50.15c0-5.85-.19-9.59-.56-11.24-.37-1.65-1.22-2.86-2.55-3.63h0Z"/>
  <path class="st0" d="M486.15,212.5c5.72,0,10.35-4.63,10.35-10.35v-60.3c0-5.72-4.63-10.35-10.35-10.35h-31.15v-50.21c0-13.42-10.88-24.29-24.29-24.29h-50.21v-31.15c0-5.72-4.63-10.35-10.35-10.35h-60.3c-5.72,0-10.35,4.63-10.35,10.35v31.15h-87v-31.15c0-5.72-4.63-10.35-10.35-10.35h-60.3c-5.72,0-10.35,4.63-10.35,10.35v31.15h-50.21c-13.42,0-24.29,10.88-24.29,24.29v50.21h-31.15c-5.72,0-10.35,4.63-10.35,10.35v60.3c0,5.72,4.63,10.35,10.35,10.35h31.15v87h-31.15c-5.72,0-10.35,4.63-10.35,10.35v60.3c0,5.72,4.63,10.35,10.35,10.35h31.15v50.21c0,13.42,10.88,24.29,24.29,24.29h50.21v31.15c0,5.72,4.63,10.35,10.35,10.35h60.3c5.72,0,10.35-4.63,10.35-10.35v-31.15h87v31.15c0,5.72,4.63,10.35,10.35,10.35h60.3c5.72,0,10.35-4.63,10.35-10.35v-31.15h50.21c13.42,0,24.29-10.88,24.29-24.29v-50.21h31.15c5.72,0,10.35-4.63,10.35-10.35v-60.3c0-5.72-4.63-10.35-10.35-10.35h-31.15v-87h31.15ZM162.38,320.54h-50.99l-19.39-129.08h35.4c4.11,35.56,7.05,65.64,8.81,90.25,1.73-24.87,3.57-46.96,5.52-66.25l2.33-24h35.4l-17.08,129.08h0ZM262.3,320.54h-33.57v-54.22h-10.05v54.22h-33.57v-129.08h33.57v46.16h10.05v-46.16h33.57v129.08ZM353.51,282.19c0,11.59-.55,19.33-1.63,23.24-1.09,3.91-2.99,6.96-5.7,9.17-2.71,2.21-6.06,3.75-10.05,4.62-3.99.88-9.99,1.32-18.02,1.32h-42.34v-129.08h25.11c16.21,0,27.17.74,32.89,2.23,5.71,1.49,10.06,3.93,13.04,7.33,2.98,3.4,4.84,7.19,5.58,11.36s1.12,12.37,1.12,24.6v45.21ZM420,320.54h-53.98v-129.08h33.57v103.25h20.41v25.83Z"/>
</svg>