<?xml version="1.0" encoding="UTF-8"?>
<svg id="Camada_1" data-name="Camada 1" xmlns="http://www.w3.org/2000/svg" version="1.1" viewBox="0 0 128 128">
  <defs>
    <style>
      .cls-1 {
        fill: #fff;
        stroke-width: 0px;
      }
    </style>
  </defs>
  <path class="cls-1" d="M117.5,33.5l.3-.2c-.6-1.1-1.5-2.1-2.4-2.6L67.1,2.9c-.8-.5-1.9-.7-3.1-.7s-2.3.3-3.1.7L12.9,30.8c-1.7,1-2.9,3.5-2.9,5.4v55.7c0,1.1.2,2.3.9,3.4h-.2c.5.9,1.2,1.6,1.9,2l48.2,27.9c.8.5,1.9.7,3.1.7s2.3-.3,3.1-.7l48-27.9c1.7-1,2.9-3.5,2.9-5.4v-55.8c0-.8,0-1.7-.4-2.6ZM64,88.5c9.1,0,17.1-5,21.3-12.4l12.9,7.6c-6.8,11.8-19.6,19.8-34.2,19.8-21.8,0-39.5-17.7-39.5-39.5s17.7-39.5,39.5-39.5,27.5,8.1,34.3,20l-13,7.5c-4.2-7.5-12.2-12.5-21.3-12.5-13.5,0-24.5,11-24.5,24.5s11,24.5,24.5,24.5Z"/>
</svg>