<?xml version="1.0" encoding="UTF-8"?>
<svg id="Camada_1" data-name="Camada 1" xmlns="http://www.w3.org/2000/svg" version="1.1" viewBox="0 0 128 128">
  <defs>
    <style>
      .cls-1 {
        fill: #fff;
        stroke-width: 0px;
      }
    </style>
  </defs>
  <path class="cls-1" d="M63.4,0c-1.8,0-3.6.4-4.9,1.2L11.6,28.3c-2.7,1.6-4.9,5.4-4.9,8.5v54.2c0,1.6.6,3.3,1.4,4.8h0c.9,1.5,2.1,2.9,3.5,3.7l46.9,27.1c2.7,1.6,7.1,1.6,9.8,0h0l46.9-27.1c1.4-.8,2.6-2.1,3.5-3.7.9-1.5,1.4-3.3,1.4-4.8v-54.2c0-1.6-.6-3.3-1.4-4.8h0c-.9-1.5-2.1-2.9-3.5-3.7L68.4,1.2c-1.4-.8-3.1-1.2-4.9-1.2ZM63.4,26c13.5,0,26,7.2,32.8,18.9l-16.4,9.5c-3.4-5.8-9.7-9.5-16.4-9.5-10.4,0-18.9,8.5-18.9,18.9s8.5,18.9,18.9,18.9,13-3.6,16.4-9.5l16.4,9.5c-6.7,11.7-19.3,18.9-32.8,18.9-20.9,0-37.8-17-37.8-37.8S42.6,26,63.4,26h0s0,0,0,0ZM92.9,57.6h4.2v4.2h4.2v4.2h-4.2v4.2h-4.2v-4.2h-4.2v-4.2h4.2v-4.2ZM108.6,57.6h4.2v4.2h4.2v4.2h-4.2v4.2h-4.2v-4.2h-4.2v-4.2h4.2v-4.2Z"/>
</svg>