<?xml version="1.0" encoding="UTF-8"?>
<svg id="Camada_1" data-name="Camada 1" xmlns="http://www.w3.org/2000/svg" version="1.1" viewBox="0 0 128 128">
  <defs>
    <style>
      .cls-1 {
        fill: #fff;
        stroke-width: 0px;
      }
    </style>
  </defs>
  <path class="cls-1" d="M8.76,1l10.06,112.88,45.12,12.58,45.24-12.63L119.24,1H8.76ZM98.35,26.86l-3.35,37.6v.2s0,.47,0,.47h0s-2.38,26.29-2.38,26.29l-.26,2.34-28.36,7.84h0s-.02.02-.02.02l-28.31-7.89-1.92-21.74h13.88l.99,11.05,15.39,4.17h0s0,0,0,0l15.44-4.23,1.63-18h-32.28l-.28-3.04-.63-7.13-.33-3.83h34.75l1.26-14H30.64l-.28-3.04-.63-7.13-.33-3.83h69.28s-.33,3.86-.33,3.86Z"/>
</svg>