<?xml version="1.0" encoding="UTF-8"?>
<svg id="Camada_1" data-name="Camada 1" xmlns="http://www.w3.org/2000/svg" version="1.1" viewBox="0 0 128 128">
  <defs>
    <style>
      .cls-1 {
        fill: #fff;
        stroke-width: 0px;
      }
    </style>
  </defs>
  <path class="cls-1" d="M86.6,25h3c1.1.2,2.2.4,3.4.6l-2.5-7.4-14.8-14.7c-3.4-3.4-8-4.4-10.4-2.3L29.2,25.1s57.4-.1,57.4-.1ZM92.7,28.6c-1.2-.2-2.3-.4-3.3-.5h-2.9c0-.1-56,0-56,0l78.6,78.6,6.1-13.8s-22.5-64.3-22.5-64.3ZM28.9,92.2l64.3,22.7,13.8-6.1L28.4,30.2v58.8c.1.9.2,2,.5,3.2Z"/>
  <path class="cls-1" d="M106.9,34.3c-2.6-2.6-7-5.1-11.3-6.5l22.8,65.2-6.9,15.7,15.8-5.2v-48.7l-20.4-20.5ZM93.4,118.1l-65-22.9c1.4,4.3,3.8,8.7,6.5,11.4l21.3,21.2h47.6c0,0,5.3-16.6,5.3-16.6,0,0-15.7,6.9-15.7,6.9ZM25.5,89.1v-2.7c-.1,0-.1-57.5-.1-57.5L1.7,65.1c-2.1,2.2-1,6.9,2.3,10.4l14.7,14.8,7.3,2.6c-.3-1.3-.5-2.5-.5-3.8Z"/>
</svg>