<?xml version="1.0" encoding="UTF-8"?>
<svg id="Camada_1" data-name="Camada 1" xmlns="http://www.w3.org/2000/svg" version="1.1" viewBox="0 0 512 512">
  <defs>
    <style>
      .cls-1 {
        fill: #fff;
        stroke-width: 0px;
      }
    </style>
  </defs>
  <path class="cls-1" d="M11.69,268.31c0-1.53,0-3.06,0-4.58.08-.73.23-1.46.22-2.19-.04-2.95-.15-5.91-.21-8.86-.03-1.54,0-3.08,0-4.62,0-1.53,0-3.06,0-4.58.19-.48.49-.95.54-1.44.21-2.28.31-4.57.53-6.85,7.12-72.53,39.53-131.24,97.66-175.03C157.96,24.33,212.11,8.81,271.54,12.3c41.89,2.47,80.56,15.23,115.91,37.82,85.84,54.83,128.56,156.76,107.59,256.43-23.13,109.95-118.77,190.32-231.01,193.51-65.14,1.85-122.33-19.15-171.07-62.42-31.35-27.82-53.7-61.85-67.59-101.41-7.64-21.76-11.78-44.21-13.32-67.18-.02-.25-.23-.5-.36-.74ZM256.06,224.16c-.16-.11-.23-.13-.26-.18-1.42-1.95-2.82-3.93-4.27-5.86-12.02-15.96-26.03-29.85-44.17-38.62-34.41-16.64-68.22-15.48-99.52,7.16-46.07,33.33-47.33,99.05-5.1,134.64,26.91,22.68,57.8,27,90.93,17.09,6.83-2.04,13.32-5.59,19.53-9.2,17.04-9.9,30.31-23.88,41.58-39.87.38-.54.78-1.07,1.23-1.69,2.47,3.3,4.74,6.44,7.11,9.5,8.43,10.88,18.24,20.38,29.49,28.27,4.79,3.36,10.02,6.26,15.37,8.63,31.93,14.12,63.13,12.95,92.69-6.18,30.54-19.76,45.13-55.45,36.88-90.67-7.57-32.3-28.12-53.73-59.39-63.87-31.65-10.27-61.19-4.21-88.09,15.13-9.99,7.19-18.6,15.84-26.25,25.45-2.65,3.33-5.14,6.79-7.76,10.27Z"/>
  <path class="cls-1" d="M162.67,200.01c18.54-.56,33.97,6.89,47.58,18.79,11.64,10.19,20.6,22.5,27.91,36.05.3.56.38,1.53.09,2.06-9.52,17.51-21.45,32.98-38.31,44.08-15.4,10.14-32.32,13.85-50.34,9.98-24.76-5.31-42.16-24.06-45.5-45.94-3.58-23.43,5.4-41.71,24.53-55.17,8-5.63,17.09-8.72,26.8-9.82,2.38-.27,4.82-.04,7.23-.04ZM192.16,247.52h-54.2v17.33h54.2v-17.33Z"/>
  <path class="cls-1" d="M354.11,312.32c-22.1,0-36.83-6.37-49.85-17.11-12.81-10.56-22.51-23.63-30.38-38.14-.28-.52-.4-1.42-.14-1.89,10.61-19.41,23.82-36.56,43.66-47.31,19.7-10.66,40.08-11.62,60.23-1.36,17.1,8.71,27.91,22.73,30.54,41.96,2.87,21.02-4.93,38.1-21.39,51.17-10.95,8.69-23.68,12.62-32.67,12.68ZM337.68,265.01v18.23h17.68v-18.4h18.16v-17.48h-18.26v-18.24h-17.68v18.33h-18.14v17.55h18.25Z"/>
</svg>