<?xml version="1.0" encoding="UTF-8"?>
<svg id="Camada_1" data-name="Camada 1" xmlns="http://www.w3.org/2000/svg" version="1.1" viewBox="0 0 128 128">
  <defs>
    <style>
      .cls-1 {
        fill: #fff;
        stroke-width: 0px;
      }
    </style>
  </defs>
  <path class="cls-1" d="M115.4,0H13.2C6,0,.3,5.8.3,12.9v102.2c0,7.1,5.8,12.9,12.9,12.9h102.2c7.1,0,12.9-5.8,12.9-12.9V12.9c0-7.1-5.8-12.9-12.9-12.9ZM88.5,68.7c11.9-4.2,21,12.3-3.8,18.8,0,0,.3-.2.4-.5,18.6-9.7,10-19,4-17.7-1.5.3-2.1.6-2.1.6,0,0,.6-.8,1.6-1.2ZM73.9,58.2c5.6,7.9-6.6,14.1-6.6,14.1,0,0,6-5,1.3-10.5-16.2-18.7,17.7-27.1,17.7-27.1-21.6,12.5-17.6,16.2-12.4,23.5ZM52.5,46c6.7-10.2,25.6-15.2,21.4-31.5,0,0,10.3,10.3-9.8,26.1-16.1,12.7-3.7,20,0,28.3-9.4-8.5-16.3-16-11.7-22.9ZM37.2,72.6c8.6-4.1,15.6-3.7,15.6-3.7,0,0-18,4.2-6.3,5.8,4.9.7,14.7.6,23.8-.2,7.5-.6,14.9-2,14.9-2,0,0-2.6,1.2-4.5,2.5-18.3,4.8-53.6,2.5-43.4-2.4ZM53.7,94c7.8.9,11.8.8,20.5-.9,0,0,2.3,1.4,5.5,2.7-19.4,8.3-43.9-.5-28.7-4.8,0,0-3.8,2.2,2.7,2.9ZM48.6,80.3s-4.3,3.2,2.2,3.8c8.4.9,15.1,1,26.5-1.3,0,0,1.6,1.6,4,2.5-23.4,6.9-49.5.6-32.8-5ZM43.3,98.8s-1.3,0-3.4.4c-2.1.5-8.7,2.6-5.2,4.1,9.8,4.3,45.2,3.3,56.4-.2,5.9-1.8,3.1-4.1,3.1-4.1,10.2,4.7-22.3,14-61.8,7.5-14.5-2.4,6.9-10.6,10.9-7.8ZM54.6,113.2c-11.7-.7-14-2.6-14-2.6,11.1,1.8,29.9,2.1,45.2-.7h0c13.5-2.5,14.8-5.7,14.8-5.7-.6,8.4-28,10.2-45.9,9Z"/>
</svg>