<?xml version="1.0" encoding="UTF-8"?>
<svg id="Camada_1" data-name="Camada 1" xmlns="http://www.w3.org/2000/svg" version="1.1" viewBox="0 0 128 128">
  <defs>
    <style>
      .cls-1 {
        fill: #fff;
        stroke-width: 0px;
      }
    </style>
  </defs>
  <path class="cls-1" d="M47.6,98.1c-19.2,5.4,11.7,16.4,36.1,6-4-1.6-6.9-3.4-6.9-3.4-10.9,2.1-16,2.2-25.8,1.1-8.2-.9-3.4-3.7-3.4-3.7ZM80.8,87.7c-14.4,2.8-22.8,2.7-33.4,1.6-8.2-.8-2.8-4.8-2.8-4.8-21.1,7,11.8,15,41.3,6.3-3.1-1.1-5.1-3.1-5.1-3.1ZM92.1,27.1s-42.7,10.7-22.3,34.2c6,6.9-1.6,13.2-1.6,13.2,0,0,15.3-7.9,8.3-17.8-6.6-9.2-11.6-13.8,15.6-29.6ZM102.1,108.2s3.5,2.9-3.9,5.2c-14.1,4.3-58.7,5.6-71.1.2-4.5-1.9,3.9-4.6,6.5-5.2,2.7-.6,4.3-.5,4.3-.5-5-3.5-32,6.8-13.7,9.8,49.8,8.1,90.8-3.6,77.9-9.5ZM85,77.9c2.4-1.6,5.7-3.1,5.7-3.1,0,0-9.4,1.7-18.8,2.5-11.5,1-23.8,1.2-30,.3-14.7-2,8-7.3,8-7.3,0,0-8.8-.6-19.6,4.6-12.8,6.2,31.7,9,54.7,3ZM90.6,93c-.1.3-.5.6-.5.6,31.3-8.2,19.8-29,4.8-23.7-1.3.5-2,1.5-2,1.5,0,0,.8-.3,2.7-.7,7.6-1.6,18.4,10.1-5,22.3ZM64.2,70.1c-4.6-10.4-20.3-19.6,0-35.6C89.5,14.6,76.5,1.6,76.5,1.6c5.2,20.6-18.5,26.8-27,39.7-5.8,8.7,2.9,18.1,14.7,28.8ZM91.5,121.8c-19.2,3.6-42.9,3.2-56.9.9,0,0,2.9,2.4,17.6,3.3,22.5,1.4,57-.8,57.8-11.4,0,0-1.6,4-18.6,7.2Z"/>
</svg>