<?xml version="1.0" encoding="UTF-8"?>
<svg id="Camada_1" data-name="Camada 1" xmlns="http://www.w3.org/2000/svg" version="1.1" viewBox="0 0 128 128">
  <defs>
    <style>
      .cls-1 {
        fill-rule: evenodd;
      }

      .cls-1, .cls-2 {
        fill: #fff;
        stroke-width: 0px;
      }
    </style>
  </defs>
  <path class="cls-2" d="M45.95,63.71c0,23,17.85,30.04,18.22,30.17h.02s-.03.02-.05.03h0s0,0,0,0c20.31,6.9,40.67-10.26,40.67-41.25,0-17.05-7.6-37.36-27.7-48.89,28.42,6.32,48.89,30.63,48.89,60.14,0,35.82-30.18,62-61.87,62-2.08,0-37.08-10.93-37.22-51.16-.1-30.18,19.21-40.41,32.72-38.44,0,0-13.68,7.81-13.68,27.41Z"/>
  <path class="cls-1" d="M82.05,64.29c0-23-17.85-30.04-18.22-30.17h-.02s.03-.02.05-.03h0s0,0,0,0c-20.31-6.9-40.67,10.26-40.67,41.25,0,17.05,7.59,37.36,27.7,48.89C22.47,117.92,2,93.61,2,64.1,2,28.27,32.18,2.09,63.87,2.09c2.08,0,37.08,10.94,37.22,51.16.1,30.18-19.21,40.41-32.72,38.44,0,0,13.68-7.81,13.68-27.41Z"/>
</svg>