<?xml version="1.0" encoding="UTF-8"?>
<svg id="Camada_1" data-name="Camada 1" xmlns="http://www.w3.org/2000/svg" version="1.1" viewBox="0 0 128 128">
  <defs>
    <style>
      .cls-1 {
        fill: #fff;
        stroke-width: 0px;
      }
    </style>
  </defs>
  <path class="cls-1" d="M49.3,62h29.2c8.1,0,14.5-6.9,14.5-15v-27.8c0-7.9-6.6-13.9-14.6-15.2-5-.8-10.2-1.2-15.2-1.2-5,0-9.6.4-13.8,1.2-12.4,2.2-14.5,6.8-14.5,15.2v10.8h29v4H23.8c-8.5,0-15.9,5.1-18.2,14.8-2.7,11.1-2.8,17.9,0,29.5,2.1,8.6,7,14.7,15.5,14.7h9.9v-13c0-9.6,8.4-18,18.3-18ZM47.5,22.9c-3,0-5.5-2.5-5.5-5.5s2.5-5.6,5.5-5.6,5.5,2.5,5.5,5.6c0,3.1-2.5,5.5-5.5,5.5ZM122.3,48.8c-2.1-8.4-6.1-14.8-14.6-14.8h-10.7v13c0,10-8.8,18-18.5,18h-29.2c-8,0-14.3,7.3-14.3,15.3v27.8c0,7.9,6.7,12.6,14.5,14.8,9.2,2.7,18,3.2,29.1,0,7.3-2.1,14.5-6.4,14.5-14.8v-11.1h-29v-4h43.7c8.5,0,11.6-5.8,14.6-14.7,3-9.1,2.9-17.8,0-29.5ZM80.3,104.4c3,0,5.5,2.5,5.5,5.5s-2.5,5.6-5.5,5.6-5.5-2.5-5.5-5.6,2.5-5.5,5.5-5.5Z"/>
</svg>