<?xml version="1.0" encoding="UTF-8"?>
<svg id="Camada_1" data-name="Camada 1" xmlns="http://www.w3.org/2000/svg" version="1.1" viewBox="0 0 128 128">
  <defs>
    <style>
      .cls-1 {
        fill: #fff;
        stroke-width: 0px;
      }
    </style>
  </defs>
  <path class="cls-1" d="M115.9,2.8c-5.5-4.9-12.2-2.9-18.7,2.9-1,.9-2,1.9-2.9,2.9-11.2,11.9-21.7,34-24.9,50.9,1.3,2.6,2.2,5.8,2.9,8.3.3,1.2.6,2.5.9,3.7,0,0-.1-.4-.5-1.6l-.3-.8c0-.1-.1-.3-.2-.4-.7-1.7-2.8-5.3-3.7-6.9-.7,2.1-1.4,4.2-2,6.3,2.6,4.7,4.1,12.8,4.1,12.8,0,0-.1-.5-.8-2.4-.6-1.6-3.4-6.6-4.1-7.8-1.2,4.3-1.6,7.2-1.2,7.9.8,1.4,1.6,3.7,2.2,6.3,1.5,5.9,2.6,13,2.6,13v1.2c-.1,4.9,0,9.8.4,14.7.5,6.1,1.5,11.4,2.7,14.2l.8-.4c-1.8-5.5-2.5-12.8-2.2-21.2.5-12.8,3.4-28.2,8.9-44.3,9.2-24.3,21.9-43.7,33.6-53-10.6,9.6-25,40.7-29.3,52.2-4.8,12.9-8.2,25-10.3,36.6,3.6-10.9,15-15.5,15-15.5,0,0,5.6-7,12.2-16.9-3.9.9-10.4,2.4-12.6,3.4-3.2,1.3-4.1,1.8-4.1,1.8,0,0,10.4-6.3,19.3-9.2,12.2-19.3,25.6-46.6,12.1-58.6M16.9,5.7c-5.4,0-9.8,4.4-9.8,9.8v88.6c0,5.4,4.4,9.8,9.8,9.8h50.2c-.4-4.8-.5-9.6-.3-14.4,0-.3,0-.8,0-1.1-.6-4.3-1.5-8.5-2.5-12.7-.6-2.5-1.5-4.8-2-5.6-.6-1.1-.5-1.7-.5-2.3,0-.6,0-1.3.2-2.1.3-1.9.7-3.7,1.2-5.6h1.2c0-.3,0-.5-.2-.7l-.2-2c.6-2.1,1.3-4.3,2-6.4h1.1c0-.2,0-.3,0-.4l-.2-1.7c3.4-17.5,13.8-39.7,25.6-52.2.4-.4.7-.7,1.1-1H16.9Z"/>
</svg>